<svg xmlns="http://www.w3.org/2000/svg" viewBox="0 0 169.02 23.11"><defs><style>.cls-1{fill:#195fa5;}</style></defs><g id="Calque_2" data-name="Calque 2"><g id="Calque_1-2" data-name="Calque 1"><g id="Calque_2-2" data-name="Calque 2"><g id="Calque_1-2-2" data-name="Calque 1-2"><path class="cls-1" d="M9.72.57H13.3L23,22.72H18.9l-2.24-5.31H6.26L4,22.72H0ZM15.25,14l-3.8-8.8L7.67,14Z"/><path class="cls-1" d="M25.24,6.13h3.81V9.87a5.88,5.88,0,0,1,5.87-4v4H34.7c-3.33,0-5.65,2.17-5.65,6.57V22.7H25.24Z"/><path class="cls-1" d="M46.55,22.72v-2a6.72,6.72,0,0,1-5.37,2.39c-3.15,0-5.91-1.79-5.91-5.12v-.07c0-3.67,2.86-5.43,6.72-5.43a14,14,0,0,1,4.59.69v-.32c0-2.29-1.45-3.55-4.09-3.55a11.4,11.4,0,0,0-4.74,1l-1-3a14.24,14.24,0,0,1,6.32-1.38c4.9,0,7.29,2.58,7.29,7v9.83Zm.09-6.94a10.71,10.71,0,0,0-3.8-.66c-2.39,0-3.8,1-3.8,2.58v.06c0,1.57,1.41,2.45,3.2,2.45,2.52,0,4.4-1.41,4.4-3.49Z"/><path class="cls-1" d="M53.75,6.13h3.8V8.65a5.94,5.94,0,0,1,5.06-2.86,5.23,5.23,0,0,1,4.94,2.92,6.77,6.77,0,0,1,5.62-2.92c3.61,0,5.81,2.29,5.81,6.34V22.72h-3.8V13.3c0-2.64-1.23-4.06-3.36-4.06s-3.55,1.45-3.55,4.12v9.36H64.46V13.26c0-2.57-1.25-4-3.36-4s-3.55,1.55-3.55,4.13v9.33h-3.8Z"/><path class="cls-1" d="M82.6,0h4.08V3.61H82.6Zm.16,6.16h3.79V22.72h-3.8Z"/><path class="cls-1" d="M89.1,20.56,90.8,18a9.28,9.28,0,0,0,5.44,2c1.63,0,2.57-.69,2.57-1.79v-.06c0-1.29-1.76-1.73-3.7-2.33-2.45-.69-5.19-1.69-5.19-4.87v-.06c0-3.14,2.61-5.06,5.91-5.06a11.52,11.52,0,0,1,6.1,1.88l-1.51,2.71a9.61,9.61,0,0,0-4.69-1.57c-1.47,0-2.32.69-2.32,1.66v.06c0,1.2,1.79,1.7,3.74,2.33,2.42.75,5.15,1.85,5.15,4.84v.06c0,3.49-2.7,5.22-6.16,5.22a11.76,11.76,0,0,1-7-2.48"/><path class="cls-1" d="M115.25,22.72v-2a6.72,6.72,0,0,1-5.37,2.39c-3.15,0-5.91-1.79-5.91-5.12v-.07c0-3.67,2.86-5.43,6.72-5.43a14,14,0,0,1,4.59.69v-.32c0-2.29-1.44-3.55-4.08-3.55a11.41,11.41,0,0,0-4.75,1l-1-3a14.24,14.24,0,0,1,6.32-1.38c4.9,0,7.29,2.58,7.29,7v9.83Zm.1-6.94a10.76,10.76,0,0,0-3.81-.66c-2.39,0-3.8,1-3.8,2.58v.06c0,1.57,1.41,2.45,3.2,2.45,2.52,0,4.41-1.41,4.41-3.49Z"/><path class="cls-1" d="M122.29,16.69V6.13h3.8v9.43c0,2.58,1.29,4,3.56,4s3.74-1.54,3.74-4.11V6.13h3.8V22.72h-3.8V20.15a6,6,0,0,1-5.19,2.92c-3.74,0-5.91-2.51-5.91-6.38"/><path class="cls-1" d="M141.68,18.14V9.4h-2.13V6.13h2.1V1.57h3.8V6.13h4.47V9.4h-4.47v8.14A1.81,1.81,0,0,0,147,19.6a1.55,1.55,0,0,0,.48,0,5.18,5.18,0,0,0,2.35-.56v3.11a6.68,6.68,0,0,1-3.42.85c-2.8,0-4.78-1.23-4.78-4.87"/><path class="cls-1" d="M151.33,14.52v-.06A8.85,8.85,0,0,1,169,14.4v.06a8.67,8.67,0,0,1-8.7,8.64h-.19a8.58,8.58,0,0,1-8.8-8.36v-.22m13.89,0v-.06a5.13,5.13,0,0,0-4.92-5.34h-.17a5,5,0,0,0-5,5,2.81,2.81,0,0,0,0,.29v.06a5.14,5.14,0,0,0,4.94,5.34h.12a5,5,0,0,0,5-5,2.81,2.81,0,0,0,0-.29"/></g></g></g></g></svg>