<svg xmlns="http://www.w3.org/2000/svg" viewBox="0 0 64.4 64.4"><defs><style>.cls-1{fill:none;}.cls-2{fill:#195fa5;}</style></defs><g id="Calque_2" data-name="Calque 2"><g id="Calque_1-2" data-name="Calque 1"><path class="cls-1" d="M53.09,11.24a28.45,28.45,0,0,0-20.9-8.61,28.6,28.6,0,0,0-20.91,8.61,28.69,28.69,0,0,0-8.65,21,28.52,28.52,0,0,0,8.65,20.88,28.47,28.47,0,0,0,20.91,8.68,28.32,28.32,0,0,0,20.9-8.68,28.43,28.43,0,0,0,8.68-20.88A28.6,28.6,0,0,0,53.09,11.24ZM50.33,50.36a24.55,24.55,0,0,1-18.08,7.51,24.7,24.7,0,0,1-18.17-7.51A24.75,24.75,0,0,1,6.57,32.23a24.73,24.73,0,0,1,7.51-18.15A24.79,24.79,0,0,1,32.25,6.55a24.64,24.64,0,0,1,18.08,7.53,24.64,24.64,0,0,1,7.54,18.15A24.66,24.66,0,0,1,50.33,50.36Z"/><path class="cls-2" d="M55,9.4A31.07,31.07,0,0,0,32.19,0,31.19,31.19,0,0,0,9.4,9.4,31.19,31.19,0,0,0,0,32.21,31,31,0,0,0,9.4,55,31,31,0,0,0,32.19,64.4,30.92,30.92,0,0,0,55,55,31,31,0,0,0,64.4,32.21,31.14,31.14,0,0,0,55,9.4ZM53.09,53.09a28.32,28.32,0,0,1-20.9,8.68,28.47,28.47,0,0,1-20.91-8.68A28.52,28.52,0,0,1,2.63,32.21a28.69,28.69,0,0,1,8.65-21A28.6,28.6,0,0,1,32.19,2.63a28.45,28.45,0,0,1,20.9,8.61,28.6,28.6,0,0,1,8.68,21A28.43,28.43,0,0,1,53.09,53.09Z"/><polygon class="cls-2" points="21.54 33.25 30.18 33.25 25.84 23.21 21.54 33.25"/><path class="cls-2" d="M50.33,14.08A24.64,24.64,0,0,0,32.25,6.55a24.79,24.79,0,0,0-18.17,7.53A24.73,24.73,0,0,0,6.57,32.23a24.75,24.75,0,0,0,7.51,18.13,24.7,24.7,0,0,0,18.17,7.51,24.55,24.55,0,0,0,18.08-7.51,24.66,24.66,0,0,0,7.54-18.13A24.64,24.64,0,0,0,50.33,14.08Zm-16,29.13-2.55-6.05H19.93l-2.58,6.05H12.83l11-25.27H28L39,43.21Zm12.93-.38V40.5a7.55,7.55,0,0,1-5.69,2.71l-1.7-3.9a4.51,4.51,0,0,0,2.48.65c2.87,0,5-1.61,5-4V34.91A12.39,12.39,0,0,0,43,34.16c-2.51,0-4.08,1-4.31,2.53l-1.85-4.25a9.37,9.37,0,0,1,5.19-1.33,15.84,15.84,0,0,1,5.24.79v-.36c0-2.62-1.65-4.05-4.66-4.05a12.6,12.6,0,0,0-4.53.83l-1.48-3.38a16.05,16.05,0,0,1,6.62-1.32c5.59,0,8.31,2.94,8.31,8V42.83Z"/></g></g></svg>